<svg xmlns:xlink="http://www.w3.org/1999/xlink" xmlns="http://www.w3.org/2000/svg" width="52" height="52" viewBox="0 0 52 52" fill="none">
<path d="M18.1777 40.0616V18.0482C18.1777 17.1816 18.4377 16.3366 18.9144 15.6216L24.8294 6.82491C25.7611 5.41657 28.0794 4.41991 30.0511 5.15657C32.1744 5.87157 33.5827 8.2549 33.1277 10.3782L32.0011 17.4632C31.9144 18.1132 32.0877 18.6982 32.4561 19.1532C32.8244 19.5649 33.3661 19.8249 33.9511 19.8249H42.8561C44.5677 19.8249 46.0411 20.5182 46.9077 21.7316C47.7311 22.9016 47.8827 24.4182 47.3411 25.9566L42.0111 42.1849C41.3394 44.8716 38.4144 47.0599 35.5111 47.0599H27.0611C25.6094 47.0599 23.5727 46.5616 22.6411 45.6299L19.8677 43.4849C18.8061 42.6832 18.1777 41.4049 18.1777 40.0616Z" fill="#21409A"/>
<path d="M11.289 13.8232H9.05732C5.69898 13.8232 4.33398 15.1232 4.33398 18.3299V40.1266C4.33398 43.3332 5.69898 44.6332 9.05732 44.6332H11.289C14.6473 44.6332 16.0123 43.3332 16.0123 40.1266V18.3299C16.0123 15.1232 14.6473 13.8232 11.289 13.8232Z" fill="#21409A"/>
</svg>