<svg xmlns:xlink="http://www.w3.org/1999/xlink" xmlns="http://www.w3.org/2000/svg" width="56" height="56" viewBox="0 0 56 56" fill="none">
<path d="M28.0016 25.1984C31.6743 25.1984 34.6516 22.2211 34.6516 18.5484C34.6516 14.8757 31.6743 11.8984 28.0016 11.8984C24.3289 11.8984 21.3516 14.8757 21.3516 18.5484C21.3516 22.2211 24.3289 25.1984 28.0016 25.1984Z" fill="#21409A"/>
<path d="M44.1483 24.5778C47.0692 24.5778 49.4371 22.2099 49.4371 19.2889C49.4371 16.3679 47.0692 14 44.1483 14C41.2273 14 38.8594 16.3679 38.8594 19.2889C38.8594 22.2099 41.2273 24.5778 44.1483 24.5778Z" fill="#21409A"/>
<path d="M54.6658 37.0775C53.608 30.4197 50.1236 26.4375 44.1502 26.4375C41.848 26.4375 39.9813 26.9975 38.4258 28.1175C38.6124 28.3042 38.7991 28.4908 39.048 28.6775C41.5991 31.3531 43.3413 35.2108 44.1502 40.1264C44.1502 40.3131 44.2124 40.4997 44.2124 40.6242C49.9991 40.6864 55.1013 39.6908 54.6658 37.0775Z" fill="#21409A"/>
<path d="M12.2928 24.5778C15.2138 24.5778 17.5817 22.2099 17.5817 19.2889C17.5817 16.3679 15.2138 14 12.2928 14C9.37182 14 7.00391 16.3679 7.00391 19.2889C7.00391 22.2099 9.37182 24.5778 12.2928 24.5778Z" fill="#21409A"/>
<path d="M17.4557 28.6775C17.6424 28.4908 17.829 28.3042 18.0157 28.1175C16.4601 26.9975 14.5313 26.4375 12.2913 26.4375C6.38015 26.4375 2.89571 30.3575 1.77571 37.0775C1.34015 39.6908 6.5046 40.6864 12.2913 40.6864C12.2913 40.4997 12.2913 40.3131 12.3535 40.1886C13.1002 35.2731 14.8424 31.4153 17.4557 28.6775Z" fill="#21409A"/>
<path d="M28.3508 44.0938C21.0114 44.0938 14.5527 42.8315 15.0811 39.6757C16.4903 31.4134 20.8939 26.5938 28.3508 26.5938C35.8076 26.5938 40.2113 31.4708 41.6205 39.6757C42.1489 42.8315 35.6902 44.0938 28.3508 44.0938Z" fill="#21409A"/>
</svg>