<svg xmlns:xlink="http://www.w3.org/1999/xlink" xmlns="http://www.w3.org/2000/svg" width="54" height="54" viewBox="0 0 54 54" fill="none">
<path d="M0 17.7188C17.82 17.7188 35.64 17.7188 54 17.7188C54 28.0557 54 38.3927 54 49.043C36.18 49.043 18.36 49.043 0 49.043C0 38.706 0 28.369 0 17.7188ZM25.1016 25.8398C25.1016 26.8492 25.1016 27.8585 25.1016 28.8984C26.1805 28.8984 27.2595 28.8984 28.3711 28.8984C28.3711 32.8662 28.3711 36.8339 28.3711 40.9219C29.3804 40.9219 30.3898 40.9219 31.4297 40.9219C31.4297 36.9541 31.4297 32.9864 31.4297 28.8984C32.5434 28.8984 33.6572 28.8984 34.8047 28.8984C34.8047 27.8891 34.8047 26.8798 34.8047 25.8398C31.6027 25.8398 28.4006 25.8398 25.1016 25.8398ZM38.1797 25.8398C38.1797 30.8169 38.1797 35.794 38.1797 40.9219C39.189 40.9219 40.1984 40.9219 41.2383 40.9219C41.2383 38.9032 41.2383 36.8845 41.2383 34.8047C42.7001 34.8047 44.1619 34.8047 45.668 34.8047C45.668 33.7954 45.668 32.786 45.668 31.7461C44.2062 31.7461 42.7444 31.7461 41.2383 31.7461C41.2383 30.8064 41.2383 29.8666 41.2383 28.8984C42.8393 28.8984 44.4403 28.8984 46.0898 28.8984C46.0898 27.8891 46.0898 26.8798 46.0898 25.8398C43.4795 25.8398 40.8691 25.8398 38.1797 25.8398ZM10.3359 25.9453C10.2057 26.4011 10.091 26.8177 10.0075 27.278C9.98684 27.3912 9.96614 27.5043 9.94481 27.6208C9.92289 27.7427 9.90096 27.8647 9.87837 27.9903C9.85468 28.1204 9.83099 28.2504 9.80658 28.3845C9.74203 28.7394 9.67782 29.0943 9.61378 29.4493C9.54658 29.8215 9.47901 30.1935 9.41151 30.5656C9.2983 31.19 9.1854 31.8144 9.07268 32.4389C8.9424 33.1606 8.81159 33.8822 8.6805 34.6038C8.56781 35.2241 8.45541 35.8445 8.34326 36.4649C8.27633 36.8351 8.2093 37.2053 8.14202 37.5755C8.0671 37.9877 7.9928 38.4 7.91855 38.8124C7.8962 38.9349 7.87385 39.0575 7.85082 39.1838C7.83071 39.296 7.81061 39.4082 7.78989 39.5239C7.76347 39.67 7.76347 39.67 7.73651 39.8191C7.6892 40.1041 7.6892 40.1041 7.69922 40.5C9.16102 40.761 9.16102 40.761 10.6523 41.0273C10.7944 40.5302 10.9124 40.0705 11.0034 39.5663C11.0158 39.4983 11.0282 39.4303 11.0409 39.3602C11.0812 39.1383 11.121 38.9163 11.1607 38.6943C11.1888 38.5392 11.2169 38.3842 11.245 38.2292C11.3185 37.8234 11.3915 37.4175 11.4645 37.0115C11.5391 36.5965 11.6142 36.1815 11.6893 35.7665C11.8363 34.9538 11.9827 34.141 12.1289 33.3281C12.6665 34.9853 13.1675 36.6512 13.6516 38.3247C13.7194 38.558 13.7871 38.7914 13.8549 39.0247C14.0182 39.5867 14.181 40.1488 14.3438 40.7109C15.2835 40.7109 16.2232 40.7109 17.1914 40.7109C17.6855 39.176 18.114 37.6246 18.5427 36.0703C18.6165 35.8036 18.6903 35.5369 18.7642 35.2702C18.9433 34.6229 19.1222 33.9756 19.3008 33.3281C19.5433 34.2544 19.7425 35.1849 19.9249 36.1247C19.9528 36.2671 19.9808 36.4096 20.0087 36.552C20.0813 36.9223 20.1535 37.2926 20.2256 37.663C20.2996 38.0428 20.374 38.4225 20.4484 38.8022C20.5936 39.5438 20.7383 40.2856 20.8828 41.0273C21.1187 40.9942 21.3546 40.9609 21.5905 40.9275C21.7218 40.909 21.8532 40.8904 21.9885 40.8713C22.4104 40.8088 22.8251 40.7317 23.2427 40.645C23.4756 40.5967 23.7085 40.5483 23.9414 40.5C23.5979 38.6293 23.2449 36.7607 22.8818 34.8937C22.8331 34.6431 22.7845 34.3926 22.7358 34.142C22.6352 33.6241 22.5345 33.1062 22.4338 32.5883C22.3046 31.9241 22.1757 31.2599 22.0469 30.5956C21.9472 30.0815 21.8472 29.5674 21.7472 29.0534C21.6996 28.8081 21.652 28.5629 21.6044 28.3176C21.5385 27.9777 21.4724 27.6379 21.4061 27.2981C21.3769 27.1467 21.3769 27.1467 21.347 26.9923C21.329 26.9002 21.311 26.808 21.2924 26.713C21.2769 26.633 21.2613 26.553 21.2453 26.4706C21.1985 26.2413 21.1985 26.2413 21.0938 25.9453C20.1192 25.9453 19.1447 25.9453 18.1406 25.9453C16.9614 30.0533 16.9614 30.0533 15.8203 34.1719C15.5897 33.826 15.5018 33.5376 15.3855 33.1388C15.3535 33.0302 15.3535 33.0302 15.3209 32.9194C15.2748 32.7624 15.229 32.6053 15.1833 32.4481C15.1111 32.1993 15.0382 31.9507 14.9651 31.7021C14.8365 31.2639 14.7084 30.8255 14.5805 30.3871C14.3758 29.6856 14.1708 28.9844 13.9649 28.2833C13.8931 28.0385 13.8219 27.7935 13.7507 27.5486C13.7066 27.3982 13.6626 27.2478 13.6184 27.0975C13.5802 26.9663 13.542 26.8352 13.5026 26.7001C13.3964 26.3446 13.3964 26.3446 13.1836 25.9453C12.2439 25.9453 11.3041 25.9453 10.3359 25.9453Z" fill="#21409A"/>
<path d="M41.5556 6.01162C42.5295 6.87784 43.1781 8.0445 43.2615 9.36145C43.2674 9.69962 43.2668 10.0372 43.2637 10.3754C43.2634 10.4844 43.2632 10.5935 43.263 10.7058C43.2619 11.1098 43.259 11.5139 43.2562 11.9179C43.2519 12.8228 43.2475 13.7277 43.2431 14.6601C40.0758 14.6601 36.9086 14.6601 33.6454 14.6601C33.6367 13.766 33.628 12.872 33.619 11.9508C33.6133 11.5318 33.6133 11.5318 33.6074 11.1043C33.6062 10.8785 33.6051 10.6527 33.6042 10.4269C33.602 10.3132 33.5999 10.1995 33.5977 10.0824C33.597 8.73134 33.993 7.43021 34.9073 6.41413C36.7934 4.60994 39.4643 4.47788 41.5556 6.01162Z" fill="#21409A"/>
<path d="M18.6688 6.01162C19.6428 6.87784 20.2913 8.0445 20.3748 9.36145C20.3806 9.69962 20.3801 10.0372 20.3769 10.3754C20.3767 10.4844 20.3765 10.5935 20.3763 10.7058C20.3752 11.1098 20.3722 11.5139 20.3695 11.9179C20.3652 12.8228 20.3608 13.7277 20.3563 14.6601C17.1891 14.6601 14.0219 14.6601 10.7587 14.6601C10.75 13.766 10.7413 12.872 10.7323 11.9508C10.7265 11.5318 10.7265 11.5318 10.7207 11.1043C10.7194 10.8785 10.7184 10.6527 10.7175 10.4269C10.7153 10.3132 10.7132 10.1995 10.7109 10.0824C10.7103 8.73134 11.1063 7.43021 12.0206 6.41413C13.9066 4.60994 16.5776 4.47788 18.6688 6.01162Z" fill="#21409A"/>
</svg>