<svg xmlns:xlink="http://www.w3.org/1999/xlink" width="21" height="22" viewBox="0 0 21 22" fill="none" xmlns="http://www.w3.org/2000/svg"><path d="M9.60181 0.672479C8.63501 0.872674 7.84399 1.30724 7.13599 2.02013C6.57935 2.58166 6.18384 3.29943 5.94946 4.15392C5.7981 4.70568 5.7981 5.7799 5.94946 6.38049C6.37427 8.07971 7.65845 9.36389 9.3772 9.8131C10.0461 9.98889 10.9592 9.98889 11.6428 9.80822C12.7561 9.52014 13.7375 8.83654 14.3577 7.92346C16.1594 5.27209 14.8704 1.6881 11.7893 0.765252C11.4231 0.65783 11.2424 0.633416 10.6467 0.618768C10.1633 0.609002 9.8313 0.623651 9.60181 0.672479ZM10.7883 2.23986C10.9446 2.35217 11.0374 2.60119 11.0374 2.91369V3.17736L11.3987 3.19689C11.7014 3.21154 11.7844 3.23107 11.887 3.32873C12.136 3.5631 12.0823 4.02209 11.7893 4.15881C11.7161 4.19299 11.3645 4.21252 10.9153 4.21252C10.2219 4.21252 10.1487 4.22228 10.0608 4.31017C9.9436 4.42736 9.93872 4.49572 10.0413 4.64221C10.1096 4.73986 10.1536 4.74963 10.637 4.75451C10.925 4.75451 11.2278 4.78381 11.3157 4.8131C11.6086 4.92053 11.887 5.16467 12.0383 5.4381C12.3118 5.94103 12.1995 6.63439 11.7795 7.0006C11.594 7.16662 11.262 7.33264 11.1252 7.33752C11.052 7.33752 11.0374 7.38635 11.0374 7.63537C11.0374 8.00646 10.9348 8.23107 10.72 8.33361C10.6321 8.37756 10.5344 8.41174 10.5002 8.41174C10.4661 8.41174 10.3684 8.37756 10.2805 8.33361C10.0657 8.23107 9.96313 8.00646 9.96313 7.63537V7.33752H9.64575C9.26489 7.33752 9.11841 7.27892 9.01099 7.06896C8.89868 6.86877 8.94263 6.61486 9.11353 6.45373C9.2356 6.34142 9.26978 6.33654 10.0657 6.32189C10.8469 6.30724 10.8958 6.30236 10.9641 6.19982C11.0618 6.05822 11.0569 5.98986 10.9397 5.87267C10.8567 5.78967 10.7786 5.77502 10.3928 5.77502C9.84106 5.77502 9.54321 5.65783 9.26489 5.33557C8.81079 4.80334 8.83521 4.06603 9.32349 3.57775C9.46997 3.43127 9.63599 3.31896 9.76294 3.2799L9.96313 3.22131V2.93322C9.96313 2.43029 10.1536 2.16174 10.5002 2.16174C10.5979 2.16174 10.7249 2.19592 10.7883 2.23986Z" fill="#21409A" fill-opacity="0.4"></path><path d="M2.58894 6.39089C1.41218 6.6985 0.626047 7.6946 0.621164 8.87624C0.616281 9.62331 0.865305 10.2385 1.378 10.7464C2.2032 11.5764 3.47273 11.7473 4.49812 11.176C5.69441 10.5022 6.15339 8.93972 5.50886 7.70925C5.30866 7.32839 4.79597 6.81569 4.41511 6.6155C3.86335 6.32741 3.16023 6.23952 2.58894 6.39089Z" fill="#21409A" fill-opacity="0.4"></path><path d="M17.1801 6.38565C16.2475 6.62002 15.4809 7.39639 15.2612 8.32413C14.9096 9.81338 15.9252 11.2782 17.4487 11.4882C18.7231 11.6689 19.9194 10.873 20.2953 9.6083C20.3979 9.26651 20.4076 8.59268 20.3149 8.26553C20.0854 7.43057 19.4799 6.77139 18.6742 6.47354C18.2494 6.32217 17.5903 6.28311 17.1801 6.38565Z" fill="#21409A" fill-opacity="0.4"></path><path d="M10.2119 11.6152C10.002 11.7617 9.96289 11.9619 9.96289 12.8311C9.96289 13.7393 10.0068 13.9248 10.251 14.0469C10.4365 14.1445 10.5635 14.1445 10.749 14.0469C10.9932 13.9248 11.0371 13.7393 11.0371 12.8311C11.0371 11.9619 10.998 11.7617 10.7881 11.6152C10.7246 11.5713 10.5977 11.5371 10.5 11.5371C10.4023 11.5371 10.2754 11.5713 10.2119 11.6152Z" fill="#21409A" fill-opacity="0.4"></path><path d="M2.64355 12.0791C1.48145 12.2841 0.446289 13.2656 0.177734 14.4179C0.114258 14.6865 0.0996094 15.2382 0.0996094 17.9238V21.1171L0.241211 21.2587L0.382812 21.4003H3.18555C6.21289 21.4003 6.11035 21.4101 6.26172 21.1416C6.31055 21.0634 6.33008 20.5556 6.34961 19.247L6.37402 17.455L7.76562 18.2607C9.56738 19.3056 9.6748 19.3544 10.085 19.3544C10.2607 19.3544 10.5146 19.3203 10.6465 19.2763C10.9541 19.1738 11.3447 18.8222 11.5156 18.5C11.6279 18.2851 11.6475 18.1923 11.6475 17.8115C11.6475 17.4306 11.6279 17.3378 11.5156 17.1279C11.4473 16.9912 11.3008 16.8007 11.1982 16.7031C11.0469 16.5566 7.73145 14.6035 6.3252 13.8271C6.04688 13.6757 5.90527 13.5585 5.75879 13.3632C5.15332 12.538 4.31836 12.0839 3.34668 12.0498C3.10742 12.04 2.79004 12.0498 2.64355 12.0791Z" fill="#21409A" fill-opacity="0.4"></path><path d="M17.3842 12.0742C16.52 12.1865 15.6997 12.6943 15.187 13.4414C15.0063 13.7051 14.9477 13.7441 13.1557 14.7793C12.1352 15.3652 11.2954 15.8535 11.2856 15.8633C11.2758 15.873 11.4321 16.0537 11.6323 16.2637C12.3745 17.0596 12.6039 17.8799 12.3061 18.6758C12.2573 18.8076 12.2231 18.9102 12.2329 18.9102C12.2377 18.9102 12.7797 18.6025 13.4291 18.2266C14.0834 17.8506 14.6254 17.543 14.6352 17.543C14.6401 17.543 14.6498 18.2998 14.6498 19.2275C14.6498 21.0391 14.6645 21.1563 14.8989 21.3223C15.0014 21.3906 15.3041 21.4004 17.8139 21.4004H20.6166L20.7582 21.2588L20.8998 21.1172V17.9238C20.8998 14.3643 20.9096 14.4668 20.5581 13.7588C20.1235 12.875 19.3129 12.2744 18.312 12.0938C17.9116 12.0254 17.7895 12.0205 17.3842 12.0742Z" fill="#21409A" fill-opacity="0.4"></path><path d="M7.5404 12.7283C7.35486 12.9138 7.32556 13.1042 7.44275 13.3337C7.56482 13.573 8.65857 14.5984 8.82458 14.6325C9.17126 14.7107 9.52282 14.3591 9.4447 14.0124C9.41052 13.8464 8.38513 12.7527 8.14587 12.6306C7.91638 12.5134 7.72595 12.5427 7.5404 12.7283Z" fill="#21409A" fill-opacity="0.4"></path><path d="M12.8186 12.655C12.5403 12.8259 11.5882 13.8513 11.554 14.0124C11.4758 14.3591 11.8274 14.7107 12.1741 14.6325C12.3401 14.5984 13.4339 13.573 13.5559 13.3337C13.6731 13.1042 13.6438 12.9138 13.4583 12.7283C13.263 12.5329 13.053 12.5085 12.8186 12.655Z" fill="#21409A" fill-opacity="0.4"></path></svg>