<svg xmlns:xlink="http://www.w3.org/1999/xlink" width="21" height="20" viewBox="0 0 21 20" fill="none" xmlns="http://www.w3.org/2000/svg"><path d="M5.89258 6.12718C6.03472 7.8444 6.77743 7.10432 6.9306 7.85659C7.18536 9.10741 8.38968 10.0121 9.13941 10.3245C10.0007 10.6834 10.9117 10.6933 11.9526 10.3928C12.9937 10.0923 13.7657 9.33684 14.0671 7.85664C14.2204 7.1044 14.9631 7.84448 15.1052 6.12722C15.1052 5.44295 14.6998 5.27265 14.6998 5.27265C14.6998 5.27265 14.9057 4.25985 14.9864 3.48046C15.0866 2.50906 14.3698 0 10.5473 0C10.5307 0 10.4672 0 10.4505 0C6.6279 0 5.91117 2.50906 6.01116 3.48046C6.09196 4.25985 6.29804 5.27265 6.29804 5.27265C6.29804 5.27265 5.89258 5.44291 5.89258 6.12718Z" fill="#304659" fill-opacity="0.4"></path><path d="M16.4651 13.2908C15.6361 13.0158 14.1928 12.2234 13.9455 12.1011C13.8813 12.0669 13.8072 12.0469 13.7277 12.0469C13.5542 12.0469 13.4049 12.1405 13.3353 12.2759C12.6517 13.3282 11.3843 15.7902 10.5 15.8469C9.61553 15.7902 8.34819 13.3282 7.66459 12.2759C7.595 12.1406 7.4457 12.0469 7.27225 12.0469C7.19277 12.0469 7.11853 12.0669 7.05436 12.1011C6.80717 12.2234 5.36377 13.0158 4.53474 13.2908C1.75167 14.2136 0.5 15.1547 0.5 15.7963C0.5 16.4372 0.5 19.9999 0.5 19.9999H10.5H20.5C20.5 19.9999 20.5 16.4372 20.5 15.7963C20.5 15.1546 19.2482 14.2135 16.4651 13.2908ZM10.4315 18.9606C10.0926 18.9606 9.81797 18.7083 9.81797 18.3966C9.81797 18.0851 10.0926 17.8325 10.4315 17.8325C10.7705 17.8325 11.0449 18.0851 11.0449 18.3966C11.0449 18.7083 10.7705 18.9606 10.4315 18.9606Z" fill="#304659" fill-opacity="0.4"></path><path d="M8.87316 13.047C9.00141 13.047 9.11935 13.0074 9.21433 12.9413C9.53389 12.7481 9.74913 12.3456 9.94487 12.3385L10.5018 12.341L11.0587 12.3385C11.2544 12.3456 11.4698 12.748 11.7891 12.9413C11.8841 13.0074 12.002 13.047 12.1303 13.047C12.4378 13.047 12.6875 12.8217 12.6962 12.5409H12.697V11.4513H12.6956C12.6803 11.1761 12.4335 10.957 12.1304 10.957C12.0995 10.957 12.0695 10.9599 12.04 10.9643C12.0324 10.9654 12.0246 10.9662 12.0171 10.9675C12.015 10.9679 12.013 10.9685 12.0109 10.9689C11.9956 10.9718 11.9805 10.9753 11.9658 10.9795C11.9593 10.9813 11.9529 10.9836 11.9465 10.9857C11.9382 10.9882 11.93 10.9909 11.922 10.9939C11.8655 11.0144 11.8134 11.0428 11.7676 11.078C11.5027 11.2683 11.3338 11.6208 10.999 11.6439C10.9671 11.6461 10.9345 11.6462 10.9017 11.6457C10.8724 11.6453 10.6724 11.6452 10.5019 11.6452C10.3313 11.6452 10.1312 11.6453 10.102 11.6457C10.0691 11.6462 10.0365 11.6461 10.0047 11.6439C9.66983 11.6208 9.50103 11.2683 9.23606 11.078C9.19026 11.0428 9.13817 11.0144 9.0818 10.9939C9.07369 10.9909 9.06544 10.9882 9.05719 10.9857C9.05076 10.9836 9.04443 10.9813 9.03786 10.9795C9.02319 10.9753 9.00811 10.9718 8.99275 10.9689C8.99065 10.9685 8.98869 10.9679 8.98655 10.9675C8.97912 10.9662 8.97137 10.9654 8.96372 10.9643C8.93423 10.96 8.90406 10.957 8.87325 10.957C8.57019 10.957 8.32337 11.1761 8.3081 11.4513H8.30664V12.5409H8.30746C8.31598 12.8217 8.56563 13.047 8.87316 13.047Z" fill="#304659" fill-opacity="0.4"></path></svg>