<svg xmlns:xlink="http://www.w3.org/1999/xlink" width="26" height="24" viewBox="0 0 26 24" fill="none" xmlns="http://www.w3.org/2000/svg"><path d="M12.1012 2.40885C10.3679 3.81689 8.39591 4.75956 5.99688 5.33232L4.61524 5.66644L4.60268 9.04335V12.4203L2.80654 14.055C1.50026 15.2244 1.02297 15.7375 1.06065 15.9046C1.08577 16.0239 1.19881 16.1313 1.31185 16.1313C1.43746 16.1313 2.26644 15.4631 3.17079 14.6516C4.07514 13.8402 4.82876 13.1959 4.85388 13.2197C4.879 13.2436 4.99205 13.5658 5.11765 13.9238C5.90896 16.2625 7.52925 18.482 9.61427 20.069C10.8829 21.0475 12.8172 22.1572 13.2191 22.1572C13.6838 22.1572 15.6056 21.0356 16.9119 19.9974C19.4742 17.9808 21.1698 15.2721 21.6974 12.3964C21.823 11.7162 21.9611 11.3105 22.0993 11.2031C22.2249 11.1196 22.8278 10.5707 23.4684 9.98602C24.0964 9.38939 24.6491 8.91209 24.6867 8.91209C24.7244 8.91209 24.7747 9.13881 24.7998 9.41326C24.8249 9.8309 24.8877 9.92636 25.0887 9.92636C25.3148 9.92636 25.3399 9.8309 25.3776 8.87629C25.4027 8.08874 25.3776 7.81429 25.2394 7.76656C25.1515 7.7427 24.6491 7.69497 24.1341 7.68304C23.2172 7.65917 23.2046 7.65917 23.2046 7.95749C23.2046 8.22 23.2674 8.2558 23.6819 8.2916C23.9331 8.31546 24.1466 8.35126 24.1466 8.36319C24.1466 8.43479 22.1244 10.2843 21.9988 10.3201C21.936 10.344 21.8858 9.42519 21.8858 8.02908C21.8858 6.25113 21.8481 5.67837 21.735 5.64257C21.6471 5.6187 20.9814 5.46358 20.2529 5.30846C19.5244 5.1414 18.507 4.83116 17.9669 4.6283C16.8491 4.1868 15.0906 3.10093 14.0732 2.24179C13.6838 1.90768 13.2945 1.63323 13.194 1.63323C13.1061 1.64516 12.6162 1.97927 12.1012 2.40885ZM14.2114 3.23219C16.0075 4.61637 17.7911 5.46358 19.9515 5.95282L21.1321 6.22726V8.68537V11.1315L20.7805 11.4537L20.4288 11.7759L20.4664 9.42519C20.4916 8.12454 20.4664 7.00288 20.4162 6.93129C20.366 6.87162 19.7254 6.63297 18.9969 6.41819C17.0877 5.84542 15.1283 4.85502 13.5959 3.6737C13.4201 3.54244 13.2442 3.42311 13.194 3.42311C13.1437 3.42311 12.7041 3.7095 12.2143 4.06747C10.9834 4.95048 9.12442 5.84542 7.49156 6.35852C6.73794 6.58524 6.0848 6.83582 6.03456 6.91935C5.97176 7.00288 5.93408 7.99328 5.94664 9.12688C5.9592 10.9526 5.94664 11.2151 5.74567 11.4179C5.62007 11.5492 5.46934 11.6566 5.40654 11.6566C5.3563 11.6566 5.30606 10.4275 5.30606 8.92402V6.19147L5.77079 6.10794C7.94374 5.7261 10.7824 4.40158 12.5911 2.93388C12.9051 2.67136 13.1689 2.46851 13.1814 2.46851C13.194 2.46851 13.6587 2.81455 14.2114 3.23219ZM14.7263 9.2104C15.48 9.56838 16.0577 10.2366 16.2964 10.9884C16.535 11.7401 16.535 12.0623 16.2838 12.8379C16.1457 13.3033 15.9196 13.6374 15.48 14.055C13.4452 15.9881 10.0413 14.6516 10.0288 11.8952C10.0288 10.4633 11.0336 9.25813 12.5032 8.90016C13.1061 8.75697 14.0606 8.88822 14.7263 9.2104ZM6.33601 13.005C6.61234 14.055 7.39108 15.6182 8.11958 16.5967C9.1621 17.9808 10.9834 19.5321 12.6288 20.427L13.2191 20.7492L13.822 20.427C15.392 19.5679 17.1756 18.0644 18.2181 16.7279C18.8462 15.9165 19.6123 14.5204 19.9263 13.6135C20.0394 13.2675 20.3157 12.8379 20.5669 12.6112C21.0819 12.1339 21.0819 12.1577 20.7428 13.3271C20.0771 15.6063 18.5573 17.8018 16.4848 19.4605C15.5177 20.2361 13.5206 21.4413 13.2191 21.4413C12.9177 21.4413 10.9206 20.2242 9.9534 19.4485C7.84326 17.7541 6.17272 15.3199 5.65775 13.2197C5.53214 12.6828 5.5447 12.5873 5.74567 12.3725C5.87127 12.2413 6.00944 12.1339 6.04712 12.1339C6.0848 12.1339 6.22297 12.5277 6.33601 13.005Z" fill="#304659" fill-opacity="0.4"></path><path d="M11.6749 9.81861C11.5116 9.97374 11.587 10.3198 11.788 10.3914C11.901 10.4272 12.2527 10.463 12.5918 10.463C12.9561 10.463 13.245 10.5346 13.3454 10.642C13.4711 10.7852 13.358 10.8209 12.5667 10.8448C11.7503 10.8806 11.6498 10.9045 11.6498 11.1193C11.6498 11.334 11.7503 11.3579 12.5667 11.3937C13.0566 11.4176 13.4711 11.4653 13.4711 11.525C13.4711 11.704 12.9058 11.8949 12.2778 11.9187C11.7377 11.9545 11.6498 11.9903 11.6498 12.2051C11.6498 12.5392 13.7725 14.4484 14.0363 14.353C14.388 14.2337 14.2247 13.8757 13.5087 13.1836C12.8556 12.5512 12.8179 12.4915 13.0942 12.4915C13.4585 12.4915 13.8479 12.2171 14.1619 11.7398C14.2749 11.5608 14.4884 11.4176 14.6266 11.4176C14.9657 11.4176 14.8904 10.9045 14.5387 10.8329C14.1242 10.7613 14.0614 10.5346 14.4508 10.463C14.7145 10.4152 14.7899 10.3317 14.7899 10.105V9.80668L13.2701 9.77088C12.4411 9.75895 11.7252 9.78282 11.6749 9.81861Z" fill="#304659" fill-opacity="0.4"></path></svg>