<svg xmlns:xlink="http://www.w3.org/1999/xlink" width="26" height="26" viewBox="0 0 26 26" fill="none" xmlns="http://www.w3.org/2000/svg"><path d="M23.8333 9.23033V4.31199C23.8333 2.78449 23.14 2.16699 21.4175 2.16699H17.0408C15.3183 2.16699 14.625 2.78449 14.625 4.31199V9.21949C14.625 10.7578 15.3183 11.3645 17.0408 11.3645H21.4175C23.14 11.3753 23.8333 10.7578 23.8333 9.23033Z" fill="#304659" fill-opacity="0.4"></path><path d="M23.8333 21.4175V17.0408C23.8333 15.3183 23.14 14.625 21.4175 14.625H17.0408C15.3183 14.625 14.625 15.3183 14.625 17.0408V21.4175C14.625 23.14 15.3183 23.8333 17.0408 23.8333H21.4175C23.14 23.8333 23.8333 23.14 23.8333 21.4175Z" fill="#304659" fill-opacity="0.4"></path><path d="M11.3743 9.23033V4.31199C11.3743 2.78449 10.681 2.16699 8.95852 2.16699H4.58185C2.85935 2.16699 2.16602 2.78449 2.16602 4.31199V9.21949C2.16602 10.7578 2.85935 11.3645 4.58185 11.3645H8.95852C10.681 11.3753 11.3743 10.7578 11.3743 9.23033Z" fill="#304659" fill-opacity="0.4"></path><path d="M11.3743 21.4175V17.0408C11.3743 15.3183 10.681 14.625 8.95852 14.625H4.58185C2.85935 14.625 2.16602 15.3183 2.16602 17.0408V21.4175C2.16602 23.14 2.85935 23.8333 4.58185 23.8333H8.95852C10.681 23.8333 11.3743 23.14 11.3743 21.4175Z" fill="#304659" fill-opacity="0.4"></path></svg>