<svg xmlns:xlink="http://www.w3.org/1999/xlink" width="25" height="26" viewBox="0 0 25 26" fill="none" xmlns="http://www.w3.org/2000/svg"><path d="M10.9872 1.35483C9.09751 1.58432 7.40318 2.25815 5.86021 3.39584C5.32798 3.79135 4.42466 4.65072 3.99497 5.17807C2.87193 6.54526 2.09556 8.22983 1.75376 10.0462C1.62193 10.7249 1.5731 12.3558 1.65611 13.1029C2.00767 16.1742 3.70201 18.972 6.26548 20.7152C6.47544 20.8568 6.65611 20.9593 6.66587 20.9496C6.68052 20.9398 7.86216 18.8939 9.30259 16.4037L11.9149 11.8773V6.57944V1.28158L11.7098 1.28647C11.5926 1.29135 11.2704 1.32065 10.9872 1.35483ZM5.9481 8.08822C6.15318 8.19565 6.39732 8.44955 6.48033 8.64975C6.5731 8.87436 6.56822 9.27475 6.47056 9.52377C6.3729 9.76303 6.07017 10.0413 5.82115 10.1244C5.72837 10.1537 5.52329 10.1683 5.36704 10.1585C4.72251 10.1097 4.27818 9.51889 4.40025 8.86459C4.47349 8.47397 4.77134 8.14194 5.16685 8.01498C5.34751 7.95639 5.76744 7.99545 5.9481 8.08822ZM8.74107 8.65463C8.79478 8.70834 8.83872 8.80112 8.83872 8.85971C8.83872 9.02572 5.14732 12.7074 4.98619 12.7074C4.83482 12.7074 4.68833 12.5755 4.68833 12.4437C4.68833 12.3167 8.42857 8.55697 8.55552 8.55697C8.60435 8.55697 8.68736 8.60092 8.74107 8.65463ZM8.62388 11.2669C9.01939 11.4964 9.22447 11.9701 9.12681 12.4242C9.06333 12.722 8.91685 12.932 8.64829 13.1224C8.45786 13.2542 8.40415 13.2689 8.06236 13.2689C7.73033 13.2689 7.65708 13.2542 7.4813 13.1322C7.369 13.0589 7.21763 12.9076 7.14439 12.7953C7.02232 12.6146 7.00767 12.5462 7.00767 12.1947C7.00767 11.8333 7.02232 11.7747 7.14927 11.5941C7.29087 11.3841 7.51548 11.2181 7.75474 11.14C7.97935 11.0667 8.38462 11.1253 8.62388 11.2669Z" fill="#21409A" fill-opacity="0.4"></path><path d="M5.09766 8.72337C4.97559 8.84544 4.93164 8.93333 4.93164 9.05052C4.93164 9.45579 5.3125 9.71946 5.67871 9.5681C6.20605 9.34837 6.03516 8.55735 5.45898 8.55735C5.30273 8.55735 5.22949 8.59153 5.09766 8.72337Z" fill="#21409A" fill-opacity="0.4"></path><path d="M7.72089 11.8087C7.28144 12.1798 7.6623 12.8732 8.21406 12.7072C8.43867 12.6437 8.59492 12.424 8.59492 12.175C8.59492 12.0578 8.55097 11.9699 8.4289 11.8478C8.21406 11.633 7.9455 11.6183 7.72089 11.8087Z" fill="#21409A" fill-opacity="0.4"></path><path d="M17.4902 2.48231L17.3828 2.55555V5.85145V9.14246H17.0654H16.7481V7.55555V5.96375L16.626 5.84168L16.5039 5.71961L15.5811 5.73426C14.8926 5.74403 14.6436 5.76356 14.585 5.81727C14.5117 5.87586 14.502 6.05653 14.502 7.51161V9.14246H14.1211C13.8037 9.14246 13.7207 9.15711 13.6523 9.23524C13.5303 9.36707 13.5693 9.5868 13.7207 9.66493C13.8184 9.71375 14.8584 9.7284 18.5059 9.7284C23.6377 9.7284 23.3887 9.74305 23.3887 9.44032C23.3887 9.21571 23.2568 9.14246 22.8613 9.14246H22.5098V6.70106V4.25477L22.3877 4.13758C22.2705 4.01551 22.2607 4.01551 21.377 4.01551C20.6445 4.01551 20.459 4.03016 20.3711 4.09364L20.2637 4.16688V6.65711V9.14246H19.9463H19.6289V5.87098C19.6289 2.66297 19.6289 2.5995 19.5313 2.50184C19.4385 2.40907 19.3701 2.40418 18.5156 2.40418C17.7637 2.40418 17.5781 2.41883 17.4902 2.48231Z" fill="#21409A" fill-opacity="0.4"></path><path d="M12.3682 12.2293C12.2754 12.3465 7.17773 21.2039 7.17773 21.243C7.17773 21.2967 8.00781 21.6922 8.54004 21.8875C9.04297 22.073 9.88281 22.2928 10.498 22.4099C11.0107 22.5027 12.9688 22.532 13.5889 22.4588L13.9209 22.4148L13.8818 22.1902C13.8086 21.7752 13.8379 20.8133 13.9307 20.4715C14.3213 19.0262 15.4932 17.9422 16.9824 17.659C18.0713 17.449 19.3115 17.7859 20.127 18.5135L20.3711 18.7332L20.5127 18.5623C20.8447 18.1717 21.4697 17.1805 21.7529 16.5896C22.3828 15.3006 22.7783 13.8113 22.8125 12.5857L22.8271 12.1951L17.6221 12.1805C13.4912 12.1707 12.4023 12.1853 12.3682 12.2293Z" fill="#21409A" fill-opacity="0.4"></path><path d="M16.8066 18.2738C16.2402 18.4251 15.8008 18.679 15.3516 19.1283C15.0195 19.4603 14.917 19.6019 14.7314 19.9876C14.458 20.5589 14.3896 20.8568 14.3848 21.4476C14.3848 22.7318 15.1074 23.8548 16.2842 24.4066C17.373 24.9095 18.5937 24.7826 19.6094 24.0599C20.1709 23.6546 20.6494 22.9466 20.835 22.2288C20.9424 21.7992 20.9375 21.0326 20.8252 20.6175C20.5078 19.4701 19.5947 18.557 18.4766 18.2738C17.9834 18.1468 17.2949 18.1468 16.8066 18.2738ZM17.8418 19.2796C17.8857 19.3187 17.9199 19.4066 17.9199 19.4701C17.9199 19.5579 17.9834 19.6165 18.1836 19.7337C18.7646 20.0609 18.9648 20.9105 18.4619 20.9105C18.2959 20.9105 18.2373 20.847 18.1885 20.6175C18.1445 20.4076 18.042 20.2806 17.832 20.1927C17.4023 20.012 16.9629 20.4954 17.1826 20.9056C17.2559 21.0326 17.4805 21.1546 17.6611 21.1546C18.2227 21.1546 18.7451 21.6673 18.75 22.2191C18.75 22.6195 18.4912 23.0101 18.1104 23.181C17.9639 23.2494 17.9199 23.2982 17.9199 23.391C17.9199 23.5423 17.793 23.6937 17.6611 23.6937C17.5146 23.6937 17.3828 23.5521 17.3828 23.4007C17.3828 23.2933 17.3437 23.2542 17.1924 23.181C16.6895 22.9564 16.3574 22.224 16.6602 22.014C16.8799 21.8577 17.041 21.9554 17.1338 22.307C17.2119 22.5999 17.3389 22.6927 17.6611 22.6927C17.8955 22.6927 17.9443 22.6732 18.0469 22.556C18.1299 22.4583 18.1641 22.3607 18.1641 22.224C18.1641 21.9408 17.9785 21.765 17.6221 21.7161C17.2461 21.6624 17.0166 21.5599 16.8408 21.3597C16.5186 20.9935 16.4697 20.6077 16.6895 20.1732C16.7969 19.9632 16.875 19.8753 17.1045 19.7435C17.29 19.6312 17.3828 19.5482 17.3828 19.4847C17.3828 19.2259 17.666 19.099 17.8418 19.2796Z" fill="#21409A" fill-opacity="0.4"></path></svg>